<mxfile host="app.diagrams.net" agent="Mozilla/5.0 (Windows NT 10.0; Win64; x64) AppleWebKit/537.36 (KHTML, like Gecko) Chrome/131.0.0.0 Safari/537.36" version="24.8.6">
  <diagram name="หน้า-1" id="QE4Hfmm0N3TBhtkOEg7L">
    <mxGraphModel dx="1050" dy="530" grid="1" gridSize="10" guides="1" tooltips="1" connect="1" arrows="1" fold="1" page="1" pageScale="1" pageWidth="827" pageHeight="1169" math="0" shadow="0">
      <root>
        <mxCell id="0" />
        <mxCell id="1" parent="0" />
        <mxCell id="quSyTRJb6MwMndQfZCmx-16" style="edgeStyle=orthogonalEdgeStyle;rounded=0;orthogonalLoop=1;jettySize=auto;html=1;exitX=0.5;exitY=1;exitDx=0;exitDy=0;entryX=0.5;entryY=0;entryDx=0;entryDy=0;" edge="1" parent="1" source="quSyTRJb6MwMndQfZCmx-1" target="quSyTRJb6MwMndQfZCmx-2">
          <mxGeometry relative="1" as="geometry" />
        </mxCell>
        <mxCell id="quSyTRJb6MwMndQfZCmx-1" value="start" style="ellipse;whiteSpace=wrap;html=1;" vertex="1" parent="1">
          <mxGeometry x="356" y="10" width="116" height="30" as="geometry" />
        </mxCell>
        <mxCell id="quSyTRJb6MwMndQfZCmx-17" style="edgeStyle=orthogonalEdgeStyle;rounded=0;orthogonalLoop=1;jettySize=auto;html=1;exitX=0.5;exitY=1;exitDx=0;exitDy=0;entryX=0.5;entryY=0;entryDx=0;entryDy=0;" edge="1" parent="1" source="quSyTRJb6MwMndQfZCmx-2" target="quSyTRJb6MwMndQfZCmx-3">
          <mxGeometry relative="1" as="geometry" />
        </mxCell>
        <mxCell id="quSyTRJb6MwMndQfZCmx-2" value="a = 10" style="shape=parallelogram;perimeter=parallelogramPerimeter;whiteSpace=wrap;html=1;fixedSize=1;" vertex="1" parent="1">
          <mxGeometry x="376" y="60" width="76" height="30" as="geometry" />
        </mxCell>
        <mxCell id="quSyTRJb6MwMndQfZCmx-18" style="edgeStyle=orthogonalEdgeStyle;rounded=0;orthogonalLoop=1;jettySize=auto;html=1;exitX=0.5;exitY=1;exitDx=0;exitDy=0;entryX=0.5;entryY=0;entryDx=0;entryDy=0;" edge="1" parent="1" source="quSyTRJb6MwMndQfZCmx-3" target="quSyTRJb6MwMndQfZCmx-4">
          <mxGeometry relative="1" as="geometry" />
        </mxCell>
        <mxCell id="quSyTRJb6MwMndQfZCmx-3" value="b = 20" style="shape=parallelogram;perimeter=parallelogramPerimeter;whiteSpace=wrap;html=1;fixedSize=1;" vertex="1" parent="1">
          <mxGeometry x="374" y="110" width="80" height="30" as="geometry" />
        </mxCell>
        <mxCell id="quSyTRJb6MwMndQfZCmx-19" style="edgeStyle=orthogonalEdgeStyle;rounded=0;orthogonalLoop=1;jettySize=auto;html=1;exitX=0.5;exitY=1;exitDx=0;exitDy=0;entryX=0.5;entryY=0;entryDx=0;entryDy=0;" edge="1" parent="1" source="quSyTRJb6MwMndQfZCmx-4" target="quSyTRJb6MwMndQfZCmx-5">
          <mxGeometry relative="1" as="geometry" />
        </mxCell>
        <mxCell id="quSyTRJb6MwMndQfZCmx-4" value="c = 30" style="shape=parallelogram;perimeter=parallelogramPerimeter;whiteSpace=wrap;html=1;fixedSize=1;" vertex="1" parent="1">
          <mxGeometry x="374" y="160" width="80" height="30" as="geometry" />
        </mxCell>
        <mxCell id="quSyTRJb6MwMndQfZCmx-20" style="edgeStyle=orthogonalEdgeStyle;rounded=0;orthogonalLoop=1;jettySize=auto;html=1;exitX=0.5;exitY=1;exitDx=0;exitDy=0;entryX=0.5;entryY=0;entryDx=0;entryDy=0;" edge="1" parent="1" source="quSyTRJb6MwMndQfZCmx-5" target="quSyTRJb6MwMndQfZCmx-6">
          <mxGeometry relative="1" as="geometry" />
        </mxCell>
        <mxCell id="quSyTRJb6MwMndQfZCmx-5" value="d = 40" style="shape=parallelogram;perimeter=parallelogramPerimeter;whiteSpace=wrap;html=1;fixedSize=1;" vertex="1" parent="1">
          <mxGeometry x="374" y="210" width="80" height="30" as="geometry" />
        </mxCell>
        <mxCell id="quSyTRJb6MwMndQfZCmx-21" style="edgeStyle=orthogonalEdgeStyle;rounded=0;orthogonalLoop=1;jettySize=auto;html=1;exitX=0.5;exitY=1;exitDx=0;exitDy=0;entryX=0.5;entryY=0;entryDx=0;entryDy=0;" edge="1" parent="1" source="quSyTRJb6MwMndQfZCmx-6" target="quSyTRJb6MwMndQfZCmx-7">
          <mxGeometry relative="1" as="geometry" />
        </mxCell>
        <mxCell id="quSyTRJb6MwMndQfZCmx-6" value="a + b" style="rounded=0;whiteSpace=wrap;html=1;" vertex="1" parent="1">
          <mxGeometry x="384" y="260" width="60" height="30" as="geometry" />
        </mxCell>
        <mxCell id="quSyTRJb6MwMndQfZCmx-22" style="edgeStyle=orthogonalEdgeStyle;rounded=0;orthogonalLoop=1;jettySize=auto;html=1;exitX=0.5;exitY=1;exitDx=0;exitDy=0;entryX=0.5;entryY=0;entryDx=0;entryDy=0;" edge="1" parent="1" source="quSyTRJb6MwMndQfZCmx-7" target="quSyTRJb6MwMndQfZCmx-8">
          <mxGeometry relative="1" as="geometry" />
        </mxCell>
        <mxCell id="quSyTRJb6MwMndQfZCmx-7" value="this is 10 + 20 = 30" style="shape=parallelogram;perimeter=parallelogramPerimeter;whiteSpace=wrap;html=1;fixedSize=1;" vertex="1" parent="1">
          <mxGeometry x="346" y="310" width="136" height="40" as="geometry" />
        </mxCell>
        <mxCell id="quSyTRJb6MwMndQfZCmx-23" style="edgeStyle=orthogonalEdgeStyle;rounded=0;orthogonalLoop=1;jettySize=auto;html=1;exitX=0.5;exitY=1;exitDx=0;exitDy=0;entryX=0.5;entryY=0;entryDx=0;entryDy=0;" edge="1" parent="1" source="quSyTRJb6MwMndQfZCmx-8" target="quSyTRJb6MwMndQfZCmx-9">
          <mxGeometry relative="1" as="geometry" />
        </mxCell>
        <mxCell id="quSyTRJb6MwMndQfZCmx-8" value="" style="ellipse;whiteSpace=wrap;html=1;aspect=fixed;" vertex="1" parent="1">
          <mxGeometry x="409" y="370" width="10" height="10" as="geometry" />
        </mxCell>
        <mxCell id="quSyTRJb6MwMndQfZCmx-24" value="true" style="edgeStyle=orthogonalEdgeStyle;rounded=0;orthogonalLoop=1;jettySize=auto;html=1;exitX=0.5;exitY=1;exitDx=0;exitDy=0;entryX=0.5;entryY=0;entryDx=0;entryDy=0;" edge="1" parent="1" source="quSyTRJb6MwMndQfZCmx-9" target="quSyTRJb6MwMndQfZCmx-14">
          <mxGeometry relative="1" as="geometry" />
        </mxCell>
        <mxCell id="quSyTRJb6MwMndQfZCmx-44" value="false" style="edgeStyle=orthogonalEdgeStyle;rounded=0;orthogonalLoop=1;jettySize=auto;html=1;exitX=0;exitY=0.5;exitDx=0;exitDy=0;entryX=0.5;entryY=0;entryDx=0;entryDy=0;" edge="1" parent="1" source="quSyTRJb6MwMndQfZCmx-9" target="quSyTRJb6MwMndQfZCmx-43">
          <mxGeometry relative="1" as="geometry" />
        </mxCell>
        <mxCell id="quSyTRJb6MwMndQfZCmx-9" value="i &amp;lt; 10" style="rhombus;whiteSpace=wrap;html=1;" vertex="1" parent="1">
          <mxGeometry x="374" y="400" width="80" height="40" as="geometry" />
        </mxCell>
        <mxCell id="quSyTRJb6MwMndQfZCmx-26" value="true" style="edgeStyle=orthogonalEdgeStyle;rounded=0;orthogonalLoop=1;jettySize=auto;html=1;entryX=0.5;entryY=0;entryDx=0;entryDy=0;" edge="1" parent="1" source="quSyTRJb6MwMndQfZCmx-10" target="quSyTRJb6MwMndQfZCmx-11">
          <mxGeometry relative="1" as="geometry" />
        </mxCell>
        <mxCell id="quSyTRJb6MwMndQfZCmx-33" value="false" style="edgeStyle=orthogonalEdgeStyle;rounded=0;orthogonalLoop=1;jettySize=auto;html=1;exitX=1;exitY=0.5;exitDx=0;exitDy=0;entryX=0;entryY=0.5;entryDx=0;entryDy=0;" edge="1" parent="1" source="quSyTRJb6MwMndQfZCmx-10" target="quSyTRJb6MwMndQfZCmx-31">
          <mxGeometry relative="1" as="geometry" />
        </mxCell>
        <mxCell id="quSyTRJb6MwMndQfZCmx-10" value="i&amp;nbsp; &amp;lt; 30" style="rhombus;whiteSpace=wrap;html=1;" vertex="1" parent="1">
          <mxGeometry x="374" y="490" width="80" height="40" as="geometry" />
        </mxCell>
        <mxCell id="quSyTRJb6MwMndQfZCmx-27" style="edgeStyle=orthogonalEdgeStyle;rounded=0;orthogonalLoop=1;jettySize=auto;html=1;exitX=0.5;exitY=1;exitDx=0;exitDy=0;entryX=0.5;entryY=0;entryDx=0;entryDy=0;" edge="1" parent="1" source="quSyTRJb6MwMndQfZCmx-11" target="quSyTRJb6MwMndQfZCmx-15">
          <mxGeometry relative="1" as="geometry" />
        </mxCell>
        <mxCell id="quSyTRJb6MwMndQfZCmx-11" value="here" style="shape=parallelogram;perimeter=parallelogramPerimeter;whiteSpace=wrap;html=1;fixedSize=1;" vertex="1" parent="1">
          <mxGeometry x="374" y="550" width="80" height="30" as="geometry" />
        </mxCell>
        <mxCell id="quSyTRJb6MwMndQfZCmx-29" value="true" style="edgeStyle=orthogonalEdgeStyle;rounded=0;orthogonalLoop=1;jettySize=auto;html=1;exitX=0.5;exitY=1;exitDx=0;exitDy=0;entryX=0.5;entryY=0;entryDx=0;entryDy=0;" edge="1" parent="1" source="quSyTRJb6MwMndQfZCmx-12" target="quSyTRJb6MwMndQfZCmx-13">
          <mxGeometry relative="1" as="geometry" />
        </mxCell>
        <mxCell id="quSyTRJb6MwMndQfZCmx-40" value="false" style="edgeStyle=orthogonalEdgeStyle;rounded=0;orthogonalLoop=1;jettySize=auto;html=1;exitX=1;exitY=0.5;exitDx=0;exitDy=0;entryX=0;entryY=0.5;entryDx=0;entryDy=0;" edge="1" parent="1" source="quSyTRJb6MwMndQfZCmx-12" target="quSyTRJb6MwMndQfZCmx-39">
          <mxGeometry relative="1" as="geometry" />
        </mxCell>
        <mxCell id="quSyTRJb6MwMndQfZCmx-12" value="i = 8" style="rhombus;whiteSpace=wrap;html=1;" vertex="1" parent="1">
          <mxGeometry x="374" y="630" width="80" height="40" as="geometry" />
        </mxCell>
        <mxCell id="quSyTRJb6MwMndQfZCmx-41" style="edgeStyle=orthogonalEdgeStyle;rounded=0;orthogonalLoop=1;jettySize=auto;html=1;exitX=1;exitY=0.5;exitDx=0;exitDy=0;entryX=0.5;entryY=1;entryDx=0;entryDy=0;" edge="1" parent="1" source="quSyTRJb6MwMndQfZCmx-13" target="quSyTRJb6MwMndQfZCmx-39">
          <mxGeometry relative="1" as="geometry" />
        </mxCell>
        <mxCell id="quSyTRJb6MwMndQfZCmx-13" value="this is 8." style="shape=parallelogram;perimeter=parallelogramPerimeter;whiteSpace=wrap;html=1;fixedSize=1;" vertex="1" parent="1">
          <mxGeometry x="369" y="690" width="90" height="30" as="geometry" />
        </mxCell>
        <mxCell id="quSyTRJb6MwMndQfZCmx-25" style="edgeStyle=orthogonalEdgeStyle;rounded=0;orthogonalLoop=1;jettySize=auto;html=1;exitX=0.5;exitY=1;exitDx=0;exitDy=0;entryX=0.5;entryY=0;entryDx=0;entryDy=0;" edge="1" parent="1" source="quSyTRJb6MwMndQfZCmx-14" target="quSyTRJb6MwMndQfZCmx-10">
          <mxGeometry relative="1" as="geometry" />
        </mxCell>
        <mxCell id="quSyTRJb6MwMndQfZCmx-14" value="" style="ellipse;whiteSpace=wrap;html=1;aspect=fixed;" vertex="1" parent="1">
          <mxGeometry x="409" y="460" width="10" height="10" as="geometry" />
        </mxCell>
        <mxCell id="quSyTRJb6MwMndQfZCmx-28" style="edgeStyle=orthogonalEdgeStyle;rounded=0;orthogonalLoop=1;jettySize=auto;html=1;exitX=0.5;exitY=1;exitDx=0;exitDy=0;entryX=0.5;entryY=0;entryDx=0;entryDy=0;" edge="1" parent="1" source="quSyTRJb6MwMndQfZCmx-15" target="quSyTRJb6MwMndQfZCmx-12">
          <mxGeometry relative="1" as="geometry" />
        </mxCell>
        <mxCell id="quSyTRJb6MwMndQfZCmx-15" value="" style="ellipse;whiteSpace=wrap;html=1;aspect=fixed;" vertex="1" parent="1">
          <mxGeometry x="409" y="600" width="10" height="10" as="geometry" />
        </mxCell>
        <mxCell id="quSyTRJb6MwMndQfZCmx-37" style="edgeStyle=orthogonalEdgeStyle;rounded=0;orthogonalLoop=1;jettySize=auto;html=1;exitX=0.5;exitY=0;exitDx=0;exitDy=0;entryX=0.5;entryY=1;entryDx=0;entryDy=0;" edge="1" parent="1" source="quSyTRJb6MwMndQfZCmx-31" target="quSyTRJb6MwMndQfZCmx-36">
          <mxGeometry relative="1" as="geometry" />
        </mxCell>
        <mxCell id="quSyTRJb6MwMndQfZCmx-31" value="" style="ellipse;whiteSpace=wrap;html=1;aspect=fixed;" vertex="1" parent="1">
          <mxGeometry x="510" y="505" width="10" height="10" as="geometry" />
        </mxCell>
        <mxCell id="quSyTRJb6MwMndQfZCmx-38" style="edgeStyle=orthogonalEdgeStyle;rounded=0;orthogonalLoop=1;jettySize=auto;html=1;exitX=0.5;exitY=0;exitDx=0;exitDy=0;entryX=1;entryY=0.5;entryDx=0;entryDy=0;" edge="1" parent="1" source="quSyTRJb6MwMndQfZCmx-36" target="quSyTRJb6MwMndQfZCmx-8">
          <mxGeometry relative="1" as="geometry" />
        </mxCell>
        <mxCell id="quSyTRJb6MwMndQfZCmx-36" value="ok" style="shape=parallelogram;perimeter=parallelogramPerimeter;whiteSpace=wrap;html=1;fixedSize=1;" vertex="1" parent="1">
          <mxGeometry x="480" y="405" width="70" height="30" as="geometry" />
        </mxCell>
        <mxCell id="quSyTRJb6MwMndQfZCmx-42" style="edgeStyle=orthogonalEdgeStyle;rounded=0;orthogonalLoop=1;jettySize=auto;html=1;exitX=0.5;exitY=0;exitDx=0;exitDy=0;entryX=0.5;entryY=1;entryDx=0;entryDy=0;" edge="1" parent="1" source="quSyTRJb6MwMndQfZCmx-39" target="quSyTRJb6MwMndQfZCmx-31">
          <mxGeometry relative="1" as="geometry" />
        </mxCell>
        <mxCell id="quSyTRJb6MwMndQfZCmx-39" value="" style="ellipse;whiteSpace=wrap;html=1;aspect=fixed;" vertex="1" parent="1">
          <mxGeometry x="510" y="645" width="10" height="10" as="geometry" />
        </mxCell>
        <mxCell id="quSyTRJb6MwMndQfZCmx-43" value="end" style="ellipse;whiteSpace=wrap;html=1;" vertex="1" parent="1">
          <mxGeometry x="246" y="495" width="110" height="30" as="geometry" />
        </mxCell>
      </root>
    </mxGraphModel>
  </diagram>
</mxfile>
